<?xml version="1.0" standalone="no"?><!DOCTYPE svg PUBLIC "-//W3C//DTD SVG 1.1//EN" "http://www.w3.org/Graphics/SVG/1.1/DTD/svg11.dtd"><svg class="icon" height="512" viewBox="0 0 1024 1024" version="1.1" xmlns="http://www.w3.org/2000/svg"><path fill="#fff" d="M939.02 470.447c-5.834 0-11.36 1.184-16.523 3.318l0-0.001-0.007 0.004c-0.002 0.001-0.005 0.002-0.007 0.004l-399.872 165.437-399.872-165.394c-0.004-0.001-0.006-0.002-0.222-0.004l-0.007-0.004 0 0.001c-5.038-2.113-10.613-3.318-16.453-3.318-23.83 0-43.083 19.27-43.083 43.083 0 17.991 11.004 33.338 26.651 39.787l416.361 172.278c0.004 0.002 0.006 0.002 0.222 0.005l0.007 0.002c5.038 2.115 10.613 3.318 16.453 3.318 5.886 0 11.401-1.183 16.453-3.318l0.007-0.002c0.005-0.002 0.007-0.002 0.237-0.005l416.295-172.278c15.613-6.516 26.609-21.915 26.609-39.845 0-23.83-19.276-43.083-43.083-43.083zM89.212 366.573l0 0.001 416.361 172.278c0.004 0 0.006 0.002 0.222 0.002l0.007 0.005 0-0.002c5.038 2.115 10.613 3.318 16.453 3.318 5.886 0 11.401-1.183 16.453-3.318l0 0.002 0.007-0.005c0.005 0 0.007-0.002 0.237-0.002l416.295-172.293c15.613-6.479 26.609-21.846 26.651-39.782 0-17.991-11.004-33.338-26.651-39.782l0-0.001-416.295-172.278c-0.005-0.001-0.007-0.002-0.237-0.004l-0.007-0.004 0 0.001c-5.033-2.113-10.601-3.318-16.453-3.318-5.834 0-11.36 1.184-16.453 3.318l0-0.001-0.007 0.004c-0.004 0.001-0.006 0.002-0.222 0.004l-416.361 172.285c-15.633 6.479-26.629 21.846-26.629 39.782s11.004 33.347 26.629 39.787zM939.02 657.277c-5.834 0-11.36 1.183-16.523 3.318l-0.007 0.002c-0.002 0-0.005 0.002-0.007 0.002l-399.872 165.437-399.872-165.394c-0.004-0.002-0.006-0.002-0.222-0.005l-0.007-0.002c-5.038-2.112-10.613-3.318-16.453-3.318-23.83 0-43.083 19.276-43.158 43.083 0 17.991 11.004 33.338 26.629 39.782l416.361 172.278c0.004 0.002 0.006 0.002 0.222 0.005l0.007 0.002c5.038 2.115 10.613 3.318 16.453 3.318 5.886 0 11.321-1.183 16.453-3.318l0.007-0.002c0.005-0.002 0.007-0.002 0.237-0.005l416.295-172.278c15.643-6.479 26.651-21.846 26.651-39.782 0-23.854-19.276-43.073-43.083-43.073z" /></svg>