<?xml version="1.0" standalone="no"?>
<!DOCTYPE svg PUBLIC "-//W3C//DTD SVG 20010904//EN"
 "http://www.w3.org/TR/2001/REC-SVG-20010904/DTD/svg10.dtd">
<svg version="1.0" xmlns="http://www.w3.org/2000/svg"
 width="512.000000pt" height="512.000000pt" viewBox="0 0 512.000000 512.000000"
 preserveAspectRatio="xMidYMid meet">
<metadata>
Created by potrace 1.11, written by Peter Selinger 2001-2013
</metadata>
<g transform="translate(0.000000,512.000000) scale(0.100000,-0.100000)"
fill="#000000" stroke="none">
<path d="M2320 4625 c0 -1 29 -21 64 -44 73 -47 132 -110 176 -186 38 -66 37
-72 0 -45 -38 27 -115 36 -180 20 l-52 -12 39 -23 c21 -13 46 -37 56 -54 18
-31 18 -31 -5 -31 -13 0 -74 -13 -135 -28 l-112 -28 -38 55 c-55 81 -189 210
-264 254 -78 46 -172 76 -260 84 -67 5 -207 -11 -222 -26 -31 -31 -51 -283
-35 -431 16 -145 65 -274 140 -372 l28 -36 -31 -77 c-17 -42 -37 -109 -45
-148 -9 -40 -16 -73 -18 -74 -1 -2 -47 19 -102 46 -54 27 -136 61 -182 75
-211 66 -444 8 -689 -173 -128 -93 -305 -265 -373 -362 l-22 -29 46 30 c63 43
200 106 272 125 83 23 218 30 300 16 114 -20 294 -117 379 -205 171 -178 269
-390 300 -651 39 -329 166 -603 359 -772 47 -41 66 -65 67 -83 0 -14 2 -32 4
-40 1 -8 6 -35 10 -60 8 -55 55 -174 89 -229 14 -22 26 -43 26 -47 0 -4 21
-35 46 -70 l45 -64 -43 7 c-126 23 -274 2 -379 -53 -25 -13 -50 -20 -54 -16
-5 4 -5 2 -2 -4 6 -11 -40 -51 -54 -47 -4 1 -5 -6 -2 -17 3 -11 17 -22 34 -25
23 -5 27 -10 20 -19 -8 -9 -5 -18 9 -31 11 -10 20 -15 20 -11 0 4 9 2 19 -4
13 -7 22 -7 26 0 4 6 12 4 21 -5 21 -21 25 -20 164 19 81 23 130 28 279 30 96
1 136 5 139 14 2 7 10 12 17 12 14 0 15 63 2 110 -6 22 -2 27 35 45 24 11 49
19 55 19 7 -1 10 2 7 7 -9 15 8 10 81 -21 39 -16 78 -30 88 -30 9 0 17 -3 17
-7 0 -5 10 -8 23 -9 12 0 47 -4 77 -9 118 -18 273 -4 387 36 32 11 63 21 69
22 7 2 19 9 28 16 13 11 25 8 73 -15 32 -15 59 -29 61 -30 2 -1 -1 -11 -6 -21
-21 -39 -21 -81 1 -111 21 -27 26 -29 90 -28 38 1 71 -2 74 -7 3 -4 10 -4 17
2 13 11 69 8 201 -13 11 -2 45 -10 75 -19 86 -25 120 -27 146 -10 13 8 27 12
33 9 5 -3 21 -2 36 4 20 8 26 16 22 29 -3 14 2 21 19 25 15 4 24 14 24 25 0
33 -168 131 -225 131 -13 0 -26 4 -29 9 -6 9 -206 7 -243 -2 -29 -7 -29 -2 2
37 42 52 52 68 105 171 134 259 106 522 -77 724 -59 66 -58 61 -37 166 3 11 5
66 5 123 1 92 3 103 18 97 32 -13 177 -43 241 -51 85 -11 346 -11 435 -1 101
12 302 61 360 87 61 28 95 37 138 38 64 0 141 45 189 107 26 35 45 50 65 52
55 6 73 14 106 43 50 43 60 91 55 262 -3 141 -4 146 -31 181 -55 72 -47 71
-479 72 -385 1 -388 1 -435 -22 -27 -12 -66 -23 -87 -23 l-40 0 54 27 c51 26
133 98 173 153 l18 25 -53 13 c-29 7 -78 30 -108 50 -55 37 -55 37 -56 90 -4
132 -31 245 -80 328 -23 41 -23 42 -5 65 10 13 32 49 49 79 77 138 104 268 98
475 -2 72 -7 141 -10 155 -4 14 -9 41 -12 60 -3 19 -9 38 -12 41 -15 14 -132
27 -212 24 -139 -6 -245 -49 -370 -152 -73 -59 -66 -53 -140 -148 -29 -38 -57
-74 -60 -78 -4 -4 -37 0 -74 9 -63 16 -69 20 -117 81 -76 97 -188 191 -294
245 l-39 21 33 -39 c35 -39 74 -116 87 -169 6 -27 3 -25 -34 21 -94 119 -223
191 -419 234 -46 10 -83 17 -83 15z m1706 -1873 c0 -75 2 -146 5 -157 4 -19
-2 -20 -126 -23 -71 -2 -150 0 -174 3 l-44 7 49 27 c27 15 100 61 162 104
l113 77 -96 -3 c-52 -1 -95 1 -95 4 0 3 17 11 38 17 20 7 64 27 97 46 33 19
62 35 65 35 3 1 5 -61 6 -137z m-2033 -459 c-3 -32 -6 -59 -8 -61 -2 -2 -8 13
-15 33 -10 30 -9 40 4 60 9 14 18 25 20 25 2 0 2 -26 -1 -57z"/>
<path d="M3036 862 c-3 -5 1 -9 9 -9 8 0 12 4 9 9 -3 4 -7 8 -9 8 -2 0 -6 -4
-9 -8z"/>
<path d="M2516 842 c-3 -5 1 -9 9 -9 8 0 12 4 9 9 -3 4 -7 8 -9 8 -2 0 -6 -4
-9 -8z"/>
<path d="M2555 800 c3 -5 8 -10 11 -10 2 0 4 5 4 10 0 6 -5 10 -11 10 -5 0 -7
-4 -4 -10z"/>
<path d="M3067 759 c7 -7 15 -10 18 -7 3 3 -2 9 -12 12 -14 6 -15 5 -6 -5z"/>
<path d="M2355 721 c-3 -5 -2 -12 3 -15 5 -3 9 1 9 9 0 17 -3 19 -12 6z"/>
<path d="M2695 651 c-3 -5 -2 -12 3 -15 5 -3 9 1 9 9 0 17 -3 19 -12 6z"/>
<path d="M2505 640 c-3 -6 1 -7 9 -4 18 7 21 14 7 14 -6 0 -13 -4 -16 -10z"/>
<path d="M2776 633 c-6 -14 -5 -15 5 -6 7 7 10 15 7 18 -3 3 -9 -2 -12 -12z"/>
<path d="M3556 633 c-6 -14 -5 -15 5 -6 7 7 10 15 7 18 -3 3 -9 -2 -12 -12z"/>
<path d="M2107 599 c7 -7 15 -10 18 -7 3 3 -2 9 -12 12 -14 6 -15 5 -6 -5z"/>
<path d="M3066 598 c3 -5 10 -6 15 -3 13 9 11 12 -6 12 -8 0 -12 -4 -9 -9z"/>
</g>
</svg>
