<svg class="icon" height="512" viewBox="0 0 1024 1024" xmlns="http://www.w3.org/2000/svg"><path fill="#fff" d="M939.02 470.447c-5.834 0-11.36 1.184-16.523 3.318v-.001l-.007.004-.007.004-399.872 165.437-399.872-165.394c-.004-.001-.006-.002-.222-.004l-.007-.004v.001a42.519 42.519 0 00-16.453-3.318c-23.83 0-43.083 19.27-43.083 43.083 0 17.991 11.004 33.338 26.651 39.787l416.361 172.278c.004.002.006.002.222.005l.007.002a42.482 42.482 0 0016.453 3.318 42.002 42.002 0 0016.453-3.318l.007-.002c.005-.002.007-.002.237-.005L955.66 553.36c15.613-6.516 26.609-21.915 26.609-39.845 0-23.83-19.276-43.083-43.083-43.083zM89.212 366.573v.001l416.361 172.278c.004 0 .006.002.222.002l.007.005v-.002a42.482 42.482 0 0016.453 3.318 42.002 42.002 0 0016.453-3.318v.002l.007-.005c.005 0 .007-.002.237-.002l416.295-172.293c15.613-6.479 26.609-21.846 26.651-39.782 0-17.991-11.004-33.338-26.651-39.782v-.001L538.952 114.716c-.005-.001-.007-.002-.237-.004l-.007-.004v.001a42.455 42.455 0 00-32.906 0v-.001l-.007.004c-.004.001-.006.002-.222.004L89.212 287.001c-15.633 6.479-26.629 21.846-26.629 39.782s11.004 33.347 26.629 39.787zM939.02 657.277c-5.834 0-11.36 1.183-16.523 3.318l-.007.002-.007.002-399.872 165.437-399.872-165.394c-.004-.002-.006-.002-.222-.005l-.007-.002a42.537 42.537 0 00-16.453-3.318c-23.83 0-43.083 19.276-43.158 43.083 0 17.991 11.004 33.338 26.629 39.782L505.889 912.46c.004.002.006.002.222.005l.007.002a42.482 42.482 0 0016.453 3.318c5.886 0 11.321-1.183 16.453-3.318l.007-.002c.005-.002.007-.002.237-.005l416.295-172.278c15.643-6.479 26.651-21.846 26.651-39.782 0-23.854-19.276-43.073-43.083-43.073z"/></svg>